<svg xmlns="http://www.w3.org/2000/svg" viewBox="0 0 400 120">
  <defs>
    <linearGradient id="shieldGrad" x1="0%" y1="0%" x2="0%" y2="100%">
      <stop offset="0%" style="stop-color:#2d9cdb;stop-opacity:1" />
      <stop offset="100%" style="stop-color:#1a5f7a;stop-opacity:1" />
    </linearGradient>
    <linearGradient id="needleGrad" x1="0%" y1="0%" x2="0%" y2="100%">
      <stop offset="0%" style="stop-color:#ff4444;stop-opacity:1" />
      <stop offset="100%" style="stop-color:#cc0000;stop-opacity:1" />
    </linearGradient>
  </defs>

  <!-- Background -->
  <rect width="400" height="120" fill="#0d1117" rx="8"/>

  <!-- Shield shape -->
  <path d="M30 25 L70 25 L70 65 L50 85 L30 65 Z" fill="url(#shieldGrad)" stroke="#2d9cdb" stroke-width="2">
    <animate attributeName="opacity" values="0.8;1;0.8" dur="2s" repeatCount="indefinite"/>
  </path>

  <!-- Compass inside shield -->
  <g transform="translate(50, 52)">
    <!-- Compass outer ring -->
    <circle cx="0" cy="0" r="18" fill="none" stroke="#0d1117" stroke-width="2"/>
    <circle cx="0" cy="0" r="15" fill="none" stroke="#0d1117" stroke-width="1"/>

    <!-- Compass cardinal points -->
    <text x="0" y="-8" font-family="Arial, sans-serif" font-size="6" font-weight="bold" fill="#0d1117" text-anchor="middle">N</text>
    <text x="0" y="13" font-family="Arial, sans-serif" font-size="5" fill="#0d1117" text-anchor="middle">S</text>
    <text x="10" y="2" font-family="Arial, sans-serif" font-size="5" fill="#0d1117" text-anchor="middle">E</text>
    <text x="-10" y="2" font-family="Arial, sans-serif" font-size="5" fill="#0d1117" text-anchor="middle">W</text>

    <!-- Compass tick marks -->
    <line x1="0" y1="-15" x2="0" y2="-13" stroke="#0d1117" stroke-width="1"/>
    <line x1="0" y1="15" x2="0" y2="13" stroke="#0d1117" stroke-width="1"/>
    <line x1="-15" y1="0" x2="-13" y2="0" stroke="#0d1117" stroke-width="1"/>
    <line x1="15" y1="0" x2="13" y2="0" stroke="#0d1117" stroke-width="1"/>

    <!-- Compass needle group with animation -->
    <g>
      <animateTransform attributeName="transform" type="rotate" values="0;8;-8;5;-5;2;-2;0" dur="4s" repeatCount="indefinite"/>

      <!-- North needle (red) -->
      <polygon points="0,-12 -3,0 0,2 3,0" fill="url(#needleGrad)"/>

      <!-- South needle (white) -->
      <polygon points="0,12 -3,0 0,-2 3,0" fill="#ffffff"/>
    </g>

    <!-- Center pin -->
    <circle cx="0" cy="0" r="2" fill="#0d1117"/>
  </g>

  <!-- Scanning line effect -->
  <rect x="32" y="27" width="36" height="2" fill="#00ff88" opacity="0.8">
    <animate attributeName="y" values="27;80;27" dur="2s" repeatCount="indefinite"/>
    <animate attributeName="opacity" values="0.8;0.3;0.8" dur="2s" repeatCount="indefinite"/>
  </rect>

  <!-- Text: eagle-scout -->
  <text x="95" y="58" font-family="Monaco, Consolas, monospace" font-size="32" font-weight="bold" fill="#ffffff">
    eagle-scout
  </text>

  <!-- Subtitle -->
  <text x="95" y="80" font-family="Monaco, Consolas, monospace" font-size="14" fill="#8b949e">
    Container Security Scanner
  </text>

  <!-- Docker Scout badge -->
  <g transform="translate(320, 95)">
    <rect x="0" y="0" width="70" height="18" rx="3" fill="#1a5f7a"/>
    <text x="35" y="13" font-family="Monaco, Consolas, monospace" font-size="10" fill="#ffffff" text-anchor="middle">
      Docker Scout
    </text>
  </g>

  <!-- Animated dots -->
  <circle cx="370" cy="35" r="3" fill="#00ff88">
    <animate attributeName="opacity" values="1;0.3;1" dur="1s" repeatCount="indefinite"/>
  </circle>
  <circle cx="380" cy="35" r="3" fill="#00ff88">
    <animate attributeName="opacity" values="0.3;1;0.3" dur="1s" repeatCount="indefinite"/>
  </circle>
  <circle cx="390" cy="35" r="3" fill="#00ff88">
    <animate attributeName="opacity" values="1;0.3;1" dur="1s" repeatCount="indefinite" begin="0.5s"/>
  </circle>
</svg>
